<svg xmlns="http://www.w3.org/2000/svg" viewBox="0 0 118 48"><path d="M84.888 47.488c1.262 0 2.24-.683 2.24-2.012 0-2.167-3.152-2.005-3.152-3.173 0-.447.38-.75.902-.75.63 0 1.063.4 1.406.788l.683-.72c-.397-.724-1.1-1.084-2.156-1.084-1.12 0-2.096.646-2.096 1.86 0 2.235 3.085 1.986 3.085 3.26 0 .482-.39.805-.996.805-.713 0-1.322-.434-1.72-1.006l-.686.734c.38.693 1.171 1.298 2.49 1.298zm-8.853-6.884l-1.547 4.815-1.605-4.815h-1.12l-1.605 4.815-1.538-4.815h-1.39l2.292 6.743h1.12l1.632-4.872 1.625 4.872h1.12l2.298-6.743zm-14.142 1.064v-1.064H58.13v6.743h3.762v-1.063h-2.497v-1.918h2.147v-1h-2.147v-1.698zM50.61 40.604v4.435l-3-4.435h-1.313v6.743h1.17v-4.74l3.05 4.74h1.25v-6.743zm-11.187 6.743l-1.683-1.73a16.15 16.15 0 0 0 1.064-1.386l-.72-.551c-.25.4-.656.905-.97 1.281L36.11 43.93c.807-.344 1.413-.922 1.413-1.871 0-.97-.767-1.598-1.871-1.598-1.14 0-1.965.713-1.965 1.776 0 .724.34 1.245.693 1.645-.837.273-1.682.757-1.682 1.908 0 1.006.666 1.7 1.938 1.7 1.016 0 1.71-.445 2.271-.997l.818.855h1.699zm-3.668-6.023c.428 0 .734.313.734.791 0 .569-.43.986-.962 1.252-.33-.34-.596-.683-.596-1.225 0-.505.323-.818.824-.818zm-.787 5.148c-.599 0-.912-.34-.912-.844 0-.61.39-.94.882-1.158l1.332 1.376c-.363.36-.77.626-1.302.626zM6.713 33.2c3.407 0 6.044-1.845 6.044-5.431 0-5.84-8.503-5.404-8.503-8.555 0-1.204 1.024-2.024 2.434-2.024 1.69 0 2.868 1.076 3.79 2.126l1.845-1.947c-1.076-1.946-2.971-2.92-5.815-2.92-3.022 0-5.661 1.743-5.661 5.021 0 6.02 8.325 5.353 8.325 8.786 0 1.306-1.05 2.177-2.69 2.177-1.92 0-3.56-1.179-4.636-2.715L.002 29.69c1.025 1.87 3.15 3.51 6.711 3.51zm23.104-18.571H17.163v2.894H21.8v15.292h3.382V17.523h4.636V14.63zm13.421 18.57c4.893 0 9.145-3.765 9.145-9.477s-4.252-9.478-9.145-9.478c-4.892 0-9.144 3.766-9.144 9.478s4.252 9.477 9.144 9.477zm0-3.15c-2.766 0-5.532-2.075-5.532-6.327s2.766-6.327 5.532-6.327c2.767 0 5.56 2.075 5.56 6.327s-2.793 6.326-5.56 6.326zm25.307 2.766h3.995l-4.712-6.992c2.663-.718 4.278-2.664 4.278-5.661 0-3.868-2.716-5.533-6.788-5.533h-6.481v18.186h3.407V26.13h2.023l4.278 6.685zm-6.3-15.317h2.586c2.254 0 3.585.897 3.585 3.022 0 2.1-1.28 3.125-3.585 3.125h-2.587v-6.147zm16.622 15.317h3.407V14.629h-3.407v18.186zm21.131-15.317v-2.87H89.855v18.187h10.143v-2.868h-6.736v-5.175h5.788v-2.69h-5.788v-4.584h6.736zm11.808 15.701c3.407 0 6.045-1.844 6.045-5.43 0-5.84-8.504-5.404-8.504-8.555 0-1.204 1.025-2.024 2.434-2.024 1.69 0 2.868 1.076 3.79 2.126l1.844-1.947c-1.075-1.946-2.97-2.92-5.813-2.92-3.023 0-5.661 1.743-5.661 5.021 0 6.02 8.324 5.353 8.324 8.786 0 1.306-1.05 2.177-2.69 2.177-1.92 0-3.56-1.179-4.636-2.715l-1.844 1.972c1.025 1.87 3.15 3.51 6.71 3.51zM16.844 7.202c1.263 0 2.242-.684 2.242-2.014 0-2.165-3.153-2.003-3.153-3.172 0-.446.379-.75.901-.75.627 0 1.064.399 1.406.788l.684-.722C18.525.61 17.823.25 16.768.25c-1.12 0-2.099.645-2.099 1.861 0 2.232 3.087 1.985 3.087 3.258 0 .484-.39.807-.997.807-.713 0-1.321-.437-1.72-1.006l-.683.73c.38.694 1.168 1.302 2.488 1.302zM29.154.315h-4.692V1.39h1.718v5.67h1.254V1.39h1.72V.315zm9.972 6.745h1.387L38.129.315h-1.396L34.348 7.06h1.254l.57-1.72h2.384l.57 1.72zm-2.66-2.603l.913-2.717.892 2.717h-1.805zM49.83 7.06h1.481l-1.747-2.594c.988-.265 1.587-.987 1.587-2.098 0-1.434-1.007-2.053-2.518-2.053H46.23V7.06h1.263V4.58h.75l1.587 2.48zm-2.337-5.68h.96c.836 0 1.33.333 1.33 1.12 0 .78-.475 1.159-1.33 1.159h-.96v-2.28zm13.221 2.223c.656-.22 1.084-.675 1.084-1.502 0-1.244-.96-1.786-2.319-1.786H57.21V7.06h2.536c1.424 0 2.355-.637 2.355-1.9 0-.94-.56-1.387-1.387-1.557zm-1.367-2.29c.674 0 1.12.276 1.12.96 0 .684-.446.95-1.12.95h-.874v-1.91h.874zm.256 4.749h-1.13V4.077h1.13c.655 0 1.14.314 1.14.987 0 .675-.475.989-1.14.998zm11.046 1.14c1.625 0 2.67-.883 2.67-2.66V.315h-1.273V4.4c0 1.073-.533 1.643-1.397 1.643-.826 0-1.349-.57-1.349-1.643V.315h-1.272v4.227c0 1.777 1.044 2.66 2.62 2.66zm11.863 0c1.093 0 1.805-.343 2.299-.817l-.38-1.111c-.408.399-.93.712-1.776.712-1.102 0-2.09-.779-2.09-2.317 0-1.53 1.016-2.308 2.07-2.308.722 0 1.254.275 1.616.607l.379-1.12c-.503-.39-1.178-.675-2.156-.675-1.843 0-3.229 1.35-3.229 3.514 0 2.166 1.396 3.515 3.267 3.515zm11.873-.142h1.547l-2.554-3.714 2.365-3.03h-1.454l-2.403 3.172V.315h-1.263V7.06h1.263V5.14l.618-.779 1.88 2.698zm9.136.142c1.263 0 2.241-.684 2.241-2.014 0-2.165-3.152-2.003-3.152-3.172 0-.446.38-.75.902-.75.627 0 1.064.399 1.405.788l.684-.722C105.202.61 104.5.25 103.445.25c-1.12 0-2.098.645-2.098 1.861 0 2.232 3.086 1.985 3.086 3.258 0 .484-.39.807-.997.807-.713 0-1.32-.437-1.72-1.006l-.683.73c.38.694 1.168 1.302 2.488 1.302zm5.827-6.84c-.663 0-1.31.498-1.31 1.32 0 .83.647 1.318 1.31 1.318.665 0 1.31-.488 1.31-1.319 0-.82-.645-1.318-1.31-1.318zm0 2.408c-.498 0-1.042-.342-1.042-1.089 0-.747.544-1.088 1.042-1.088.499 0 1.043.341 1.043 1.088 0 .747-.544 1.089-1.043 1.089zm.517-1.32c0-.257-.185-.378-.461-.378h-.489v1.2h.286v-.416h.12l.24.416h.331l-.303-.443a.376.376 0 0 0 .276-.378zm-.664-.147h.138c.139 0 .213.055.213.176 0 .12-.084.193-.213.193h-.138v-.37z"/></svg>
